#!OML:ASF H:\Terrain\Patient Classification 1\Walking\steve\steve.ASF
:FULLY-SPECIFIED
:DEGREES
63
root 7.33603 15.0989 -28.8777 5.73805 6.77723 4.71524
lowerback 2.42524 -1.37363 -5.23092
upperback -3.2733 -2.04928 0.787098
thorax -4.54592 -0.823527 3.87704
lowerneck -9.2043 -1.14527 -3.78448
upperneck 12.4442 -1.61958 4.55146
head 5.32415 -0.656328 1.92521
rclavicle -4.14031e-015 -4.77083e-015
rhumerus -91.321 -29.7306 -5.84164
rradius 13.0439
rwrist 59.0799
rhand -17.0572 -35.0612
rfingers 7.12502
rthumb 9.18013 -64.8414
lclavicle -4.14031e-015 -4.77083e-015
lhumerus -12.7428 -15.4146 86.9112
lradius 53.7159
lwrist 20.8778
lhand -28.7731 -19.5543
lfingers 7.12502
lthumb -2.13257 10.4147
rfemur -43.028 1.00293 17.652
rtibia 27.8518
rfoot -10.9555 4.26789
rtoes -10.1624
lfemur 23.9025 -0.929852 -27.1816
ltibia -1.27222e-014
lfoot 0.137435 -6.36309
ltoes 12.8164
64
root 7.3458 15.0981 -28.6095 5.66964 6.59082 4.6233
lowerback 2.67912 -1.31719 -4.9589
upperback -3.41342 -1.97255 0.91651
thorax -4.8486 -0.780453 3.86594
lowerneck -9.40607 -1.09131 -3.92692
upperneck 12.6593 -1.481 4.23705
head 5.41834 -0.614217 1.86079
rclavicle -2.27236e-014 9.54166e-015
rhumerus -91.8238 -29.9307 -4.43483
rradius 12.9956
rwrist 60.5914
rhand -16.7558 -35.1197
rfingers 7.12502
rthumb 9.47098 -64.8869
lclavicle -2.27236e-014 9.54166e-015
lhumerus -13.4407 -14.9682 87.1357
lradius 54.8202
lwrist 21.3698
lhand -29.4782 -19.9757
lfingers 7.12502
lthumb -2.81358 9.98554
rfemur -42.9597 0.747056 18.2462
rtibia 29.5188
rfoot -8.92322 2.76363
rtoes -13.691
lfemur 24.72 -1.01726 -27.0947
ltibia -7.95139e-014
lfoot 2.0405 -5.06414
ltoes 10.5536
65
root 7.35342 15.1061 -28.3395 5.69338 6.27551 4.47948
lowerback 2.66877 -1.2481 -4.64124
upperback -3.42791 -1.86038 0.994259
thorax -4.87465 -0.733806 3.76141
lowerneck -9.69631 -0.940939 -3.89574
upperneck 12.6421 -1.24821 4.07177
head 5.45137 -0.507655 1.82069
rclavicle -7.8551e-015 1.82882e-014
rhumerus -91.8699 -30.2259 -4.151
rradius 12.9886
rwrist 61.6216
rhand -16.6406 -34.9309
rfingers 7.12502
rthumb 9.58213 -64.693
lclavicle -7.8551e-015 1.82882e-014
lhumerus -13.9818 -14.6002 87.1508
lradius 55.8686
lwrist 22.1682
lhand -29.9845 -20.3831
lfingers 7.12502
lthumb -3.3025 9.5711
rfemur -43.2438 0.988459 18.509
rtibia 31.2257
rfoot -7.36118 2.13348
rtoes -9.54664
lfemur 23.0068 -0.981745 -26.897
ltibia 4.78172
lfoot 3.21346 -4.54157
ltoes 16.452
66
root 7.36249 15.1255 -28.0642 5.70662 5.94245 4.22979
lowerback 2.56309 -1.17361 -4.19798
upperback -3.35686 -1.72864 1.07935
thorax -4.76025 -0.687257 3.58792
lowerneck -10.0271 -0.891934 -3.82698
upperneck 12.3858 -1.1424 3.8399
head 5.42197 -0.466038 1.74285
rclavicle -1.49399e-015 1.82882e-014
rhumerus -91.7808 -30.5591 -3.96217
rradius 12.735
rwrist 62.6308
rhand -17.0666 -34.6026
rfingers 7.12502
rthumb 9.17105 -64.3832
lclavicle -1.49399e-015 1.82882e-014
lhumerus -14.6447 -14.149 87.1301
lradius 56.9908
lwrist 23.1331
lhand -29.9366 -20.0691
lfingers 7.12502
lthumb -3.25621 9.88574
rfemur -43.4419 1.30384 18.7769
rtibia 32.6742
rfoot -6.29895 2.17792
rtoes -5.1137
lfemur 20.4207 -0.886924 -26.6592
ltibia 11.1714
lfoot 4.24373 -3.94826
ltoes 19.8163
67
root 7.3751 15.1458 -27.7968 5.83332 5.59268 3.71466
lowerback 2.35296 -1.10627 -3.44773
upperback -3.26396 -1.58571 1.26002
thorax -4.56742 -0.64553 3.33741
lowerneck -10.4985 -0.882904 -3.82716
upperneck 12.1483 -1.0676 3.54527
head 5.42373 -0.445997 1.65443
rclavicle 2.03754e-015 -3.18055e-015
rhumerus -88.0822 -30.2224 -11.1083
rradius 13.1346
rwrist 56.9063
rhand -16.6872 -35.2064
rfingers 7.12502
rthumb 9.53716 -64.9706
lclavicle 2.03754e-015 -3.18055e-015
lhumerus -15.3822 -13.5062 87.205
lradius 58.0181
lwrist 23.9825
lhand -30.1373 -19.3097
lfingers 7.12502
lthumb -3.45007 10.6422
rfemur -43.5719 1.87644 19.2429
rtibia 33.9706
rfoot -5.58425 2.08813
rtoes -3.42183
lfemur 18.049 -0.464594 -26.0989
ltibia 16.4242
lfoot 5.7483 -3.23254
ltoes 5.48879
68
root 7.38538 15.1532 -27.5382 5.87973 5.17079 3.33875
lowerback 2.27272 -1.01964 -2.90264
upperback -3.16821 -1.4346 1.43816
thorax -4.44066 -0.58978 3.20312
lowerneck -10.8671 -0.723002 -3.81961
upperneck 12.1151 -0.816222 3.38398
head 5.46557 -0.3313 1.6218
rclavicle -1.35422e-015 -1.11319e-014
rhumerus -84.0203 -29.2309 -19.456
rradius 14.2229
rwrist 49.7802
rhand -15.9198 -35.877
rfingers 7.12502
rthumb 10.2776 -65.6059
lclavicle -1.35422e-015 -1.11319e-014
lhumerus -16.2087 -12.6531 87.4256
lradius 58.747
lwrist 24.7146
lhand -30.0161 -19.3223
lfingers 7.12502
lthumb -3.33304 10.6314
rfemur -43.4851 2.66332 19.496
rtibia 35.2275
rfoot -5.20015 1.99414
rtoes -2.07645
lfemur 15.6866 -0.264066 -25.7109
ltibia 21.7272
lfoot 8.58791 -0.871838
ltoes 2.52089
69
root 7.39593 15.1526 -27.283 5.67228 4.74935 3.10881
lowerback 2.53625 -0.890931 -2.44235
upperback -3.09841 -1.24503 1.48763
thorax -4.53904 -0.50902 2.98924
lowerneck -10.973 -0.6088 -3.72413
upperneck 12.1099 -0.663309 3.30935
head 5.47556 -0.256791 1.59475
rclavicle 2.05369e-014 -1.98785e-014
rhumerus -82.9469 -29.5058 -21.3541
rradius 14.5966
rwrist 48.6657
rhand -15.6589 -35.8965
rfingers 7.12502
rthumb 10.5292 -65.6128
lclavicle 2.05369e-014 -1.98785e-014
lhumerus -17.3296 -12.0427 87.633
lradius 59.4328
lwrist 25.3918
lhand -29.5752 -19.987
lfingers 7.12502
lthumb -2.90718 9.97292
rfemur -43.0422 3.14357 19.8013
rtibia 36.4893
rfoot -4.97246 2.07513
rtoes 0.690819
lfemur 13.5972 -0.313329 -25.464
ltibia 27.0841
lfoot 11.5181 2.81575
ltoes 10.5372
